<?xml version="1.0" encoding="UTF-8" ?>
<!DOCTYPE svg PUBLIC "-//W3C//DTD SVG 1.1//EN" "http://www.w3.org/Graphics/SVG/1.1/DTD/svg11.dtd">
<svg width="1070pt" height="1070pt" viewBox="0 0 1070 1070" version="1.1" xmlns="http://www.w3.org/2000/svg">
<g id="#f2f1f0ff">
</g>
<g id="#ad4f48ff">
<path fill="#ad4f48" opacity="1.00" d=" M 788.48 22.53 C 905.83 17.71 1024.27 100.52 1048.48 217.63 C 1063.05 276.35 1046.13 343.49 999.77 383.77 C 990.80 392.67 980.47 400.13 969.84 406.90 C 994.46 360.30 1007.89 301.99 982.05 252.97 C 966.36 215.28 924.12 188.44 883.03 198.96 C 841.07 207.33 813.23 254.13 824.72 295.20 C 831.76 323.32 850.23 346.53 870.22 366.77 C 917.79 415.63 973.98 458.63 1004.91 521.05 C 1042.66 591.06 1055.72 672.16 1053.00 751.01 C 1050.80 814.95 1038.92 881.35 1002.12 935.10 C 962.72 991.94 899.73 1030.03 832.67 1044.65 C 783.91 1056.36 733.39 1052.51 683.73 1052.83 C 745.15 1023.72 798.97 977.86 834.95 919.97 C 867.40 868.88 882.31 807.19 878.24 746.95 C 874.65 676.21 841.78 609.26 794.74 557.26 C 757.98 515.34 709.07 486.48 658.37 464.54 C 607.45 439.90 566.43 395.25 548.60 341.32 C 530.19 285.93 531.01 223.26 555.93 169.97 C 594.73 79.77 691.61 22.56 788.48 22.53 Z" />
<path fill="#ad4f48" opacity="1.00" d=" M 297.43 28.44 C 403.63 28.29 509.75 28.67 616.00 27.97 C 623.80 27.74 631.57 28.42 639.32 29.30 C 607.09 44.16 578.87 67.19 555.63 93.83 C 474.11 94.13 392.54 93.96 311.00 93.99 C 218.67 89.89 127.89 151.99 98.59 239.68 C 80.50 285.98 87.11 336.52 86.05 385.00 C 88.70 399.92 78.75 411.96 74.40 425.39 C 66.47 445.49 57.96 465.53 52.37 486.39 C 50.29 509.27 72.78 523.80 85.74 539.44 C 86.20 564.16 86.18 588.92 85.74 613.64 C 65.88 631.18 48.49 655.68 51.35 683.50 C 54.35 695.13 53.10 711.59 66.70 716.33 C 71.58 738.33 90.48 756.20 86.03 780.00 C 80.71 848.33 110.61 920.03 168.02 958.96 C 207.18 988.11 257.53 996.03 305.24 992.27 C 289.23 1008.60 279.30 1030.19 276.72 1052.86 C 168.14 1059.03 63.98 982.11 33.37 878.65 C 22.90 846.25 20.16 811.88 21.00 778.00 C 21.00 658.00 21.00 538.00 21.00 418.00 C 23.57 360.96 14.49 302.61 28.56 246.60 C 42.57 185.31 78.18 129.38 127.61 90.55 C 175.48 51.88 236.05 30.48 297.43 28.44 Z" />
<path fill="#ad4f48" opacity="1.00" d=" M 280.59 172.40 C 291.01 177.61 299.72 191.73 305.56 202.71 C 298.69 215.67 293.13 229.21 287.83 242.86 C 285.86 245.94 286.00 252.33 280.18 250.26 C 267.95 250.70 256.68 255.57 245.13 259.01 C 247.66 227.48 259.00 195.96 280.59 172.40 Z" />
<path fill="#ad4f48" opacity="1.00" d=" M 348.35 172.18 C 365.58 181.88 377.67 201.36 387.03 218.98 C 401.11 244.61 398.90 274.64 406.95 302.01 C 425.28 368.66 474.97 423.83 535.98 455.02 C 576.31 477.28 621.86 487.47 663.01 507.97 C 714.58 531.50 761.13 567.78 792.96 615.02 C 833.38 675.50 850.00 752.19 834.55 823.64 C 807.28 947.27 691.69 1048.04 564.01 1052.10 C 479.71 1054.11 395.31 1052.55 310.98 1052.91 C 311.08 1037.10 319.14 1022.15 329.74 1010.79 C 359.05 983.60 403.49 994.21 439.38 992.54 C 396.96 953.63 383.23 892.42 388.94 836.94 C 396.95 779.66 432.95 727.10 484.74 700.73 C 555.70 662.56 651.38 677.40 705.16 738.14 C 673.93 678.08 605.91 642.29 538.99 645.00 C 483.81 649.70 429.41 676.21 396.07 721.16 C 386.01 737.79 371.11 753.16 350.53 754.49 C 299.98 761.59 261.72 713.25 211.34 721.65 C 185.82 718.02 183.17 679.57 206.31 670.34 C 230.69 662.05 257.16 659.94 280.71 648.73 C 348.86 619.97 383.95 543.26 386.92 472.76 C 366.51 522.74 317.58 558.34 264.15 564.27 C 227.94 568.29 192.27 557.78 158.15 546.88 C 127.44 537.59 103.52 514.45 84.26 489.74 C 97.73 445.82 117.05 403.27 141.05 364.01 C 175.41 308.98 235.51 270.16 300.73 265.76 C 309.72 231.85 326.48 199.81 348.35 172.18 M 235.45 362.49 C 206.78 366.60 194.76 399.29 198.01 425.08 C 210.51 419.35 224.39 428.13 237.42 424.47 C 263.71 420.65 272.16 387.46 264.26 365.73 C 255.50 361.89 244.93 361.77 235.45 362.49 Z" />
<path fill="#ad4f48" opacity="1.00" d=" M 118.25 574.10 C 135.38 576.41 142.66 595.04 149.26 608.78 C 170.52 605.26 193.63 602.21 214.03 610.95 C 225.74 615.23 232.94 627.66 233.84 639.63 C 183.56 659.47 132.82 678.27 82.05 696.86 C 75.63 684.41 73.91 669.09 82.02 657.00 C 95.52 637.98 115.25 623.91 136.05 613.79 C 129.05 604.38 118.72 598.91 109.13 592.71 C 110.57 586.03 112.90 578.79 118.25 574.10 Z" />
<path fill="#ad4f48" opacity="1.00" d=" M 167.35 683.39 C 169.94 681.90 168.63 685.05 168.58 686.48 C 163.96 704.41 171.33 724.90 186.75 735.30 C 201.76 747.27 222.14 741.44 239.66 743.37 C 242.58 743.95 247.96 744.59 244.56 749.57 C 237.27 769.54 220.98 784.03 212.13 803.12 C 209.84 811.18 200.46 807.98 195.54 804.58 C 173.93 796.47 147.20 797.02 131.37 777.67 C 116.23 757.44 105.68 733.93 97.13 710.29 C 120.49 701.25 143.91 692.21 167.35 683.39 Z" />
</g>
</svg>
